<svg xmlns="http://www.w3.org/2000/svg" version="1.1" xmlns:xlink="http://www.w3.org/1999/xlink" xmlns:svgjs="http://svgjs.dev/svgjs" viewBox="0 0 800 800"><defs><linearGradient x1="50%" y1="0%" x2="50%" y2="100%" id="ccchaos-grad"><stop stop-color="hsl(105, 90%, 55%)" stop-opacity="1" offset="0%"></stop><stop stop-color="hsl(281, 100%, 50%)" stop-opacity="1" offset="100%"></stop></linearGradient></defs><g stroke-width="2" stroke="url(#ccchaos-grad)" fill="none" stroke-linecap="round"><path d="M402.59 109.46C412.52 114.8 422.67 120.47 433.02 125.76 443.39 129.68 453.97 132.31 464.74 133.55 475.54 133.02 486.52 131.58 497.61 129.69 508.69 127.41 519.82 125.83 530.89 125.45 541.82 126.19 552.55 128.78 562.92 133.27 572.92 139.25 582.32 146.86 590.94 155.73 598.89 165.31 605.81 175.42 611.51 185.66 616.35 195.54 619.85 204.98 621.96 213.8 623.3 221.68 623.43 228.85 622.49 235.37 620.54 243.6 616.79 258.01 617.29 265.17 619.77 269.88 623.84 275.07 629.66 280.79 637.53 286.59 647 292.98 657.76 299.96 669.59 307.05 681.67 314.68 693.3 322.79 704.05 330.97 712.95 339.57 719.29 348.51 723.03 357.47 723.44 366.73 720.38 376.25 714.6 385.77 706.15 395.33 695.78 404.95 684.59 414.61 673.03 424.4 661.89 434.36 652.08 444.48 643.8 454.89 637.39 465.67 633.33 476.72 631.23 488.26 630.86 500.29 632.4 512.62 634.93 525.43 637.96 538.59 641.62 551.8 644.84 565.07 647.2 578.08 648.98 590.47 649.29 602 647.99 612.21 645.51 620.94 641.31 627.73 635.51 632.25 628.57 634.87 620.29 635.18 610.91 633.35 600.78 630.48 589.93 626.51 578.6 622.21 566.96 619.08 555.13 617.32 543.29 617.78 531.44 621.47 519.73 628.25 508.24 638.09 496.88 650.73 485.76 665.08 474.92 679.93 464.22 694.05 453.75 705.82 443.51 713.86 433.36 717.65 423.38 716.37 413.58 710.14 403.81 700.43 394.16 688.01 384.65 674.64 375.14 662.9 365.97 654.03 357.14 649.12 348.3 648.99 339.8 652.96 331.65 660.1 323.49 669.74 315.68 679.75 308.24 688.56 300.78 695.49 293.66 698.88 286.88 698.2 280.04 693.8 273.49 685.51 267.21 674.09 260.78 660.57 254.54 645.76 248.45 630.73 242.08 616.36 235.78 603.3 229.5 592.03 222.84 582.93 216.13 575.87 209.36 570.64 202.2 567.32 194.99 565.14 187.75 563.6 180.25 562.88 172.84 561.98 165.62 560.52 158.38 558.92 151.51 556.31 145.14 552.59 139.06 548.32 133.65 542.88 129.05 536.39 124.92 529.37 121.67 521.46 119.34 512.84 117.47 503.89 116.43 494.44 116.18 484.65 116.13 474.71 116.65 464.59 117.62 454.38 118.4 444.14 119.38 433.89 120.46 423.66 121.04 413.44 121.59 403.48 122.1 393.78 122.1 384.04 122.18 374.49 122.4 365.07 122.39 355.52 122.76 346.01 123.62 336.45 124.61 326.66 126.31 316.72 128.77 306.57 131.65 296.11 135.39 285.39 139.98 274.42 145.06 263.22 150.94 251.86 157.52 240.47 164.45 229.17 171.93 218.14 179.85 207.61 187.88 197.7 196.17 188.7 204.63 180.88 212.96 174.12 221.34 168.76 229.73 164.9 237.84 162.03 245.92 160.4 253.96 159.79 261.7 159.32 269.43 159.11 277.2 158.73 284.69 157.3 292.29 154.97 300.01 151.5 307.55 146.43 315.29 140.27 323.26 133.31 331.12 125.66 339.27 118.21 347.74 111.61 356.14 106.09 364.9 102.52 374.03 101.25 383.13 101.9 392.65 104.76 402.58 109.45" stroke-dasharray="5 5" transform="rotate(0, 400, 400)" opacity="0.16"></path><path d="M409.37 120.33C419.08 125.61 428.96 131.23 438.99 136.55 449.04 140.61 459.25 143.49 469.58 145.06 479.9 144.92 490.32 143.8 500.74 142.12 511.1 139.86 521.39 138.06 531.5 137.2 541.41 137.2 550.98 138.85 560.07 142.25 568.75 147.07 576.75 153.56 583.89 161.45 590.41 170.24 595.91 179.83 600.25 189.85 603.88 199.83 606.33 209.65 607.6 219.1 608.35 227.84 608.16 235.97 607.22 243.5 605.8 253.27 604.62 269.92 606.82 277.6 610.36 282.43 615.38 287.53 621.97 293 630.32 298.38 640 304.25 650.67 310.62 662.12 317.02 673.61 323.94 684.49 331.36 694.43 338.81 702.55 346.75 708.25 355.13 711.56 363.51 711.79 372.33 708.84 381.56 703.41 390.79 695.52 400.23 685.8 409.89 675.26 419.58 664.25 429.55 653.47 439.81 643.78 450.18 635.36 460.93 628.52 472.05 623.77 483.34 620.79 495.04 619.45 507.1 619.94 519.24 621.5 531.61 623.72 544.02 626.75 556.18 629.63 568.04 631.96 579.25 634.01 589.61 634.92 598.81 634.51 606.47 631.74 614.82 617.28 619.36 606.1 616.18 597.5 613.17 588.04 609.73 577.96 606.59 567.46 605.06 556.6 605.23 545.55 607.73 534.39 613.28 523.21 621.58 512.13 632.45 501.08 645.46 490.21 659.56 479.54 673.59 468.96 686.49 458.59 696.85 448.46 703.53 438.39 706.21 428.52 704.24 418.86 697.82 409.23 688.34 399.77 676.47 390.49 663.77 381.21 652.56 372.31 643.91 363.79 638.8 355.25 638.04 347.06 641.07 339.24 647.16 331.39 655.82 323.88 665.16 316.72 673.83 309.49 681.21 302.58 685.67 295.97 686.62 289.24 684.24 282.76 678.15 276.49 668.87 270.02 657.23 263.68 643.82 257.44 629.57 250.91 615.31 244.4 601.7 237.87 589.3 230.99 578.53 224.06 569.51 217.07 562.2 209.75 556.73 202.41 552.6 195.09 549.44 187.59 547.39 180.23 545.61 173.12 543.75 166.07 542.15 159.44 539.96 153.35 536.98 147.58 533.76 142.52 529.59 138.26 524.46 134.49 518.96 131.58 512.56 129.55 505.39 127.97 497.92 127.18 489.82 127.13 481.2 127.26 472.44 127.91 463.3 128.97 453.87 129.84 444.41 130.88 434.73 132 424.88 132.61 415.03 133.18 405.26 133.68 395.55 133.67 385.82 133.7 376.12 133.85 366.4 133.74 356.59 133.96 346.7 134.62 336.68 135.37 326.5 136.77 316.13 138.88 305.56 141.37 294.83 144.69 283.92 148.82 272.89 153.43 261.84 158.83 250.82 164.96 239.99 171.46 229.49 178.57 219.48 186.16 210.18 193.92 201.64 202.02 194.14 210.34 187.86 218.63 182.58 227.02 178.61 235.46 175.95 243.71 174.01 251.96 173.02 260.18 172.72 268.15 172.25 276.11 171.75 284.08 170.84 291.8 168.75 299.58 165.7 307.45 161.53 315.13 155.91 322.97 149.37 330.98 142.23 338.88 134.62 347.01 127.39 355.42 121.14 363.75 116.03 372.4 112.84 381.38 111.88 390.33 112.72 399.66 115.66 409.36 120.32" stroke-dasharray="6 2" transform="rotate(4.04, 400, 400)" opacity="0.44"></path><path d="M415.23 131.2C424.68 136.4 434.24 141.97 443.88 147.29 453.53 151.47 463.26 154.59 473.02 156.48 482.76 156.72 492.48 155.97 502.1 154.56 511.63 152.42 520.97 150.52 530.01 149.3 538.83 148.7 547.2 149.5 554.99 151.87 562.39 155.54 569.05 160.85 574.85 167.62 580.1 175.42 584.39 184.23 587.63 193.72 590.32 203.46 592.02 213.33 592.76 223.07 593.23 232.39 593.02 241.28 592.33 249.68 591.93 257.35 591.55 264.53 591.48 271.28 592.45 277.38 594.26 283.23 597.16 288.97 601.65 294.29 607.49 299.7 614.68 305.31 623.37 310.71 633.11 316.46 643.57 322.6 654.58 328.67 665.43 335.21 675.55 342.22 684.7 349.22 692.07 356.71 697.17 364.69 700.07 372.67 700.14 381.14 697.3 390.12 692.22 399.1 684.85 408.39 675.77 417.98 665.86 427.6 655.42 437.56 645.06 447.84 635.55 458.2 627.06 468.9 619.91 479.91 614.58 490.97 610.83 502.3 608.59 513.78 608.08 525.15 608.67 536.48 610.02 547.55 612.31 558.16 614.68 568.15 616.78 577.24 619.2 595.61 608.39 602.58 599.43 598.9 592.34 596.34 584.33 593.93 575.58 592.3 566.36 592.54 556.64 594.66 546.59 599.07 536.33 606.22 525.91 615.73 515.47 627.27 504.98 640.33 494.55 653.93 484.26 666.97 474 678.59 463.9 687.55 453.99 692.93 444.14 694.6 434.47 692.04 425 685.47 415.57 676.26 406.31 664.94 397.26 652.91 388.21 642.22 379.54 633.81 371.26 628.54 362.95 627.22 355 629.37 347.4 634.43 339.76 642.08 332.44 650.68 325.43 659.01 318.33 666.6 311.51 671.87 304.93 674.17 298.22 673.61 291.69 669.6 285.32 662.47 278.73 652.87 272.23 641.18 265.78 628.17 259.04 614.58 252.3 601.02 245.53 588.09 238.45 576.22 231.32 565.69 224.16 556.62 216.73 549.15 209.33 543.05 202 538.07 194.57 534.33 187.34 531.2 180.41 528.36 173.61 526.09 167.28 523.61 161.52 520.71 153.79 516.09 142.87 502.88 139.87 494.18 138.56 487.93 138.01 480.97 138.15 473.41 138.44 465.73 139.21 457.52 140.36 448.88 141.3 440.19 142.39 431.12 143.54 421.71 144.18 412.3 144.76 402.79 145.26 393.19 145.25 383.58 145.26 373.85 145.35 364.01 145.16 354.12 145.26 344.08 145.74 333.87 146.27 323.59 147.39 313.14 149.17 302.56 151.28 291.96 154.17 281.29 157.83 270.67 161.96 260.21 166.86 249.97 172.48 240.13 178.51 230.76 185.16 222.06 192.34 214.22 199.75 207.17 207.55 201.2 215.64 196.41 223.77 192.48 232.08 189.69 240.48 187.97 248.77 186.68 257.09 186.03 265.42 185.76 273.56 185.05 281.7 184.08 289.83 182.52 297.76 179.72 305.72 175.94 313.74 171.13 321.59 165.03 329.54 158.2 337.63 150.98 345.6 143.5 353.76 136.56 362.13 130.69 370.44 126.01 379 123.21 387.84 122.54 396.66 123.57 405.78 126.57 415.22 131.19" stroke-dasharray="11 4" transform="rotate(8.08, 400, 400)" opacity="0.77"></path><path d="M419.61 142.07C428.75 147.19 437.92 152.68 447.11 157.98 456.28 162.27 465.45 165.6 474.55 167.8 483.62 168.44 492.56 168.08 501.3 166.99 509.93 165.05 518.27 163.16 526.22 161.72 533.93 160.64 541.13 160.72 547.71 162.17 553.92 164.74 559.4 168.87 564.04 174.45 568.24 181.11 571.56 188.92 573.98 197.6 576.03 206.78 577.28 216.34 577.8 226.04 578.26 235.59 578.27 244.93 578.05 253.94 578.3 262.42 578.74 270.47 579.63 278.11 581.59 285.17 584.41 291.9 588.29 298.42 593.6 304.48 600.09 310.48 607.74 316.53 616.61 322.3 626.29 328.26 636.46 334.5 646.94 340.59 657.12 347.06 666.48 353.93 674.85 360.74 681.51 368 686.04 375.74 688.56 383.46 688.49 391.68 685.77 400.42 681.01 409.16 674.15 418.23 665.69 427.61 656.41 437 646.55 446.72 636.63 456.72 627.37 466.73 618.9 477 611.54 487.44 605.74 497.83 601.33 508.29 598.27 518.69 596.83 528.83 596.48 538.67 596.94 548.01 598.41 556.77 600.14 564.7 601.82 571.57 601.33 584.58 581.94 579.99 571.24 579.57 563.35 581.64 554.87 585.61 545.94 591.72 536.74 600.17 527.26 610.55 517.63 622.41 507.89 635.24 498.1 648.11 488.36 660.04 478.59 670.32 468.92 677.91 459.38 682.07 449.86 682.83 440.49 679.75 431.3 673.12 422.13 664.19 413.12 653.43 404.3 642.04 395.47 631.87 387.02 623.71 378.93 618.34 370.82 616.51 363.04 617.85 355.58 621.93 348.07 628.56 340.84 636.32 333.89 644.19 326.84 651.76 320.01 657.56 313.38 660.93 306.59 661.93 299.95 659.83 293.41 654.77 286.66 647.29 279.96 637.52 273.28 626.09 266.34 613.66 259.39 600.71 252.4 587.86 245.16 575.51 237.89 564.03 230.62 553.65 223.17 544.54 215.78 536.66 208.53 529.9 201.25 524.35 194.23 519.62 187.56 515.43 181.08 511.99 175.1 508.68 169.72 505.28 162.59 500.39 152.83 488.22 150.31 480.53 149.27 475.09 148.94 468.98 149.26 462.24 149.69 455.42 150.56 448.01 151.78 440.07 152.78 432.1 153.9 423.64 155.07 414.71 155.75 405.78 156.34 396.63 156.85 387.28 156.85 377.93 156.85 368.39 156.91 358.67 156.66 348.94 156.66 339.04 156.98 328.99 157.32 318.96 158.19 308.82 159.65 298.64 161.4 288.58 163.87 278.58 167.07 268.78 170.7 259.29 175.08 250.19 180.18 241.63 185.68 233.64 191.82 226.41 198.51 220.1 205.49 214.54 212.9 209.99 220.65 206.53 228.52 203.71 236.61 201.82 244.86 200.74 253.08 199.79 261.38 199.2 269.71 198.7 277.92 197.56 286.15 195.96 294.38 193.67 302.46 190.14 310.56 185.67 318.69 180.28 326.68 173.81 334.74 166.78 342.89 159.57 350.93 152.31 359.12 145.71 367.45 140.27 375.73 136.03 384.21 133.61 392.89 133.23 401.55 134.44 410.45 137.49 419.59 142.06" stroke-dasharray="0 1" transform="rotate(12.12, 400, 400)" opacity="0.60"></path><path d="M422.05 152.93C430.85 157.96 439.59 163.36 448.25 168.63 456.91 173 465.45 176.52 473.85 179.01 482.19 180.04 490.31 180.08 498.16 179.36 505.88 177.71 513.23 175.93 520.13 174.39 529.87 172.74 545.86 176.22 551.82 182.09 555.21 187.53 557.85 194.19 559.75 201.85 561.44 210.17 562.52 219.1 563.09 228.4 563.76 237.81 564.22 247.23 564.63 256.52 565.61 265.5 566.93 274.19 568.78 282.54 571.69 290.43 575.44 298 580.16 305.31 586.15 312.19 593.15 318.91 601.08 325.57 610.01 331.93 619.51 338.35 629.28 344.91 639.19 351.29 648.67 357.93 657.27 364.86 664.88 371.71 670.87 378.92 674.86 386.54 677.03 394.13 676.84 402.16 674.23 410.64 669.8 419.13 663.43 427.89 655.56 436.9 646.9 445.91 637.62 455.14 628.17 464.55 619.22 473.93 610.85 483.42 603.37 492.92 597.22 502.28 592.26 511.52 588.5 520.48 586.21 529.1 584.95 537.22 584.53 544.67 587.57 567.39 573.64 566.42 564.87 568.6 558.29 572.43 551.05 578.05 543.29 585.55 535.23 594.98 526.8 605.86 518.1 617.73 509.25 630.06 500.26 642.01 491.19 652.73 482.08 661.67 472.97 667.94 463.91 670.96 454.86 670.9 445.89 667.4 437.04 660.75 428.2 652.14 419.49 641.92 410.91 631.17 402.34 621.52 394.1 613.63 386.18 608.19 378.23 605.93 370.58 606.52 363.21 609.66 355.78 615.28 348.59 622.16 341.62 629.42 334.55 636.78 327.66 642.86 320.92 647.02 314.03 649.29 307.23 648.86 300.51 645.73 293.59 640.32 286.7 632.58 279.81 622.97 272.7 612.06 265.58 600.22 258.44 587.99 251.1 575.77 243.77 563.95 236.49 552.81 229.1 542.56 221.82 533.29 214.73 525 207.69 517.79 200.95 511.43 194.62 505.75 188.52 500.89 182.94 496.39 177.99 492.07 171.51 486.17 162.92 473.47 160.87 466.12 160.09 461.06 159.97 455.43 160.44 449.23 161 442.99 161.96 436.18 163.24 428.82 164.28 421.44 165.43 413.53 166.61 405.12 167.31 396.7 167.92 387.99 168.45 379.04 168.47 370.11 168.47 360.96 168.5 351.62 168.22 342.32 168.14 332.87 168.34 323.34 168.52 313.89 169.16 304.42 170.33 295.04 171.74 285.85 173.81 276.87 176.56 268.23 179.7 259.97 183.56 252.21 188.1 245.11 193.04 238.57 198.63 232.83 204.78 227.98 211.24 223.76 218.18 220.45 225.5 218.05 232.99 216.05 240.76 214.74 248.74 213.96 256.76 213.05 264.9 212.25 273.13 211.3 281.3 209.57 289.51 207.26 297.74 204.2 305.87 199.97 314.03 194.88 322.2 189.01 330.26 182.26 338.37 175.16 346.54 168.06 354.62 161.08 362.79 154.88 371.06 149.88 379.28 146.09 387.64 144.07 396.13 143.96 404.61 145.34 413.25 148.42 422.04 152.93" stroke-dasharray="9 7" transform="rotate(16.16, 400, 400)" opacity="0.38"></path><path d="M422.34 163.8C430.74 168.72 439.01 174.02 447.11 179.23 455.2 183.66 463.11 187.35 470.77 190.11 478.38 191.51 485.7 191.97 492.68 191.64 499.53 190.34 505.97 188.77 511.92 187.26 520.28 185.23 533.7 186.46 538.62 190.67 541.47 194.87 543.69 200.3 545.34 206.79 546.93 214.03 548.09 222.06 548.94 230.63 550.03 239.53 551.06 248.66 552.2 257.86 553.99 266.97 556.19 275.96 558.97 284.73 562.73 293.2 567.29 301.42 572.72 309.38 579.23 316.99 586.58 324.42 594.66 331.7 603.5 338.71 612.71 345.67 622.02 352.67 631.31 359.48 640.07 366.42 647.92 373.53 654.8 380.56 660.14 387.84 663.64 395.4 665.48 402.93 665.18 410.79 662.69 418.99 658.57 427.19 652.67 435.55 645.38 444.03 637.33 452.5 628.63 461.07 619.68 469.66 611.08 478.19 602.88 486.65 595.38 494.96 588.99 503.08 583.59 510.9 579.23 518.27 575.15 528.49 572.71 544.48 573.31 549.72 574.16 553.21 563.57 554.69 556.52 559.43 551.14 564.84 545.1 571.85 538.49 580.41 531.58 590.45 524.22 601.5 516.51 613.06 508.64 624.67 500.51 635.56 492.23 645.01 483.88 652.61 475.43 657.62 466.96 659.61 458.47 658.83 449.98 654.98 441.55 648.37 433.12 640.09 424.75 630.43 416.46 620.3 408.17 611.16 400.15 603.56 392.4 598.1 384.62 595.45 377.08 595.37 369.77 597.63 362.4 602.26 355.22 608.22 348.21 614.78 341.11 621.74 334.14 627.86 327.28 632.54 320.28 635.79 313.34 636.76 306.45 635.34 299.39 631.89 292.34 626.16 285.3 618.49 278.09 609.36 270.87 599 263.67 587.86 256.33 576.33 249.04 564.76 241.84 553.47 234.6 542.65 227.53 532.49 220.69 523.11 213.97 514.55 207.6 506.77 201.66 499.7 196 493.39 190.88 487.58 186.38 482.12 180.58 474.74 173.17 460.35 171.56 452.75 171.03 447.65 171.1 442.15 171.71 436.2 172.38 430.25 173.41 423.82 174.72 416.89 175.79 409.95 176.96 402.53 178.15 394.62 178.87 386.71 179.5 378.52 180.04 370.12 180.09 361.73 180.1 353.15 180.13 344.44 179.84 335.8 179.71 327.07 179.81 318.34 179.85 309.75 180.3 301.25 181.22 292.94 182.32 284.88 184.01 277.14 186.34 269.84 188.99 262.93 192.33 256.6 196.32 250.95 200.69 245.8 205.69 241.41 211.25 237.84 217.14 234.71 223.53 232.34 230.33 230.67 237.35 229.16 244.69 228.09 252.29 227.3 259.98 226.17 267.85 224.92 275.84 223.36 283.83 220.93 291.91 217.86 300.02 214.05 308.09 209.17 316.19 203.55 324.3 197.32 332.35 190.41 340.42 183.35 348.52 176.45 356.57 169.83 364.67 164.07 372.81 159.55 380.92 156.22 389.11 154.58 397.36 154.74 405.6 156.26 413.93 159.36 422.33 163.8" stroke-dasharray="10 10" transform="rotate(20.200000000000003, 400, 400)" opacity="0.53"></path><path d="M420.44 174.67C428.41 179.47 436.17 184.65 443.7 189.79 451.22 194.25 458.48 198.07 465.44 201.08 472.35 202.84 478.92 203.7 485.1 203.8 493.99 202.25 509.19 198.05 515.34 196.99 520.7 197.54 528.53 205.36 531.21 212.7 532.93 218.73 534.37 225.64 535.66 233.24 537.3 241.3 539.01 249.78 540.93 258.52 543.52 267.38 546.56 276.27 550.17 285.11 554.69 293.81 559.92 302.36 565.89 310.72 572.77 318.85 580.31 326.8 588.39 334.58 597.02 342.15 605.86 349.61 614.63 357.01 623.27 364.26 631.31 371.52 638.43 378.84 644.61 386.08 649.34 393.44 652.37 400.95 653.91 408.44 653.52 416.11 651.16 423.98 647.33 431.85 641.88 439.73 635.15 447.58 627.7 455.41 619.58 463.18 611.15 470.82 602.93 478.38 594.98 485.71 587.54 492.74 581 499.57 575.28 505.97 570.45 511.81 561.53 534.52 559.1 538.36 556.16 540.25 553.63 543 550.36 546.88 546.38 552.05 542.06 558.77 537.09 566.83 531.54 576.08 525.72 586.38 519.4 597.27 512.68 608.27 505.79 618.96 498.58 628.68 491.13 636.82 483.59 643.13 475.87 646.96 468.05 648.02 460.19 646.62 452.26 642.51 444.3 635.98 436.33 628.07 428.36 618.96 420.39 609.43 412.43 600.8 404.66 593.49 397.08 588.05 389.49 585.09 382.08 584.4 374.83 585.85 367.53 589.52 360.37 594.55 353.33 600.33 346.22 606.75 339.18 612.7 332.22 617.63 325.15 621.56 318.12 623.64 311.12 623.68 303.98 621.97 296.86 618.15 289.75 612.42 282.52 605.2 275.31 596.56 268.15 586.88 260.91 576.51 253.76 565.72 246.75 554.83 239.77 544.05 233 533.59 226.52 523.62 220.2 514.2 214.25 505.4 208.77 497.21 203.59 489.66 198.96 482.63 194.94 476.04 191.31 469.95 188.34 464.11 186.07 458.41 183.57 450.29 182.21 433.77 183.06 424.99 183.82 419.08 184.9 412.81 186.23 406.17 187.32 399.53 188.49 392.49 189.68 385.07 190.42 377.64 191.07 370.02 191.63 362.24 191.71 354.5 191.76 346.63 191.8 338.73 191.51 330.89 191.35 323.07 191.38 315.36 191.32 307.79 191.61 300.42 192.3 293.34 193.13 286.51 194.49 280.08 196.41 274.14 200.03 266.06 210.88 253.64 218.03 249.4 223.31 247.05 229.09 245.27 235.31 243.98 241.77 242.62 248.58 241.48 255.69 240.4 262.94 238.81 270.41 236.96 278.04 234.67 285.73 231.5 293.53 227.69 301.4 223.18 309.27 217.75 317.19 211.72 325.13 205.25 333.05 198.32 340.98 191.4 348.92 184.8 356.84 178.6 364.77 173.32 372.71 169.29 380.64 166.42 388.59 165.14 396.54 165.55 404.5 167.2 412.47 170.32 420.43 174.67" stroke-dasharray="6 9" transform="rotate(24.24, 400, 400)" opacity="0.46"></path><path d="M416.54 185.54C424.04 190.21 431.28 195.25 438.25 200.3 445.2 204.76 451.84 208.7 458.16 211.91 467.37 214.64 483.72 214.86 490.73 213.28 502.25 210.27 514.85 214.3 517.76 219.82 519.77 224.58 521.65 230.25 523.51 236.69 525.76 243.68 528.18 251.23 530.88 259.18 534.22 267.4 538.02 275.83 542.36 284.35 547.5 292.9 553.25 301.42 559.6 309.84 566.68 318.16 574.26 326.35 582.21 334.38 590.54 342.29 598.92 350.07 607.1 357.73 615.07 365.29 622.39 372.78 628.79 380.23 634.3 387.62 638.46 395.01 641.06 402.42 642.33 409.82 641.87 417.26 639.62 424.74 636.08 432.23 631.07 439.57 624.87 446.74 618 453.88 610.46 460.82 602.56 467.48 594.77 474.06 587.11 480.3 579.82 486.12 573.24 491.77 567.31 496.91 562.12 501.47 548.34 519.15 544.82 526.18 542.5 530.31 540.55 534.55 537.97 539.85 534.77 546.31 531.31 554.02 527.24 562.76 522.61 572.34 517.75 582.56 512.4 592.99 506.61 603.2 500.65 612.83 494.33 621.32 487.7 628.17 480.99 633.23 474.03 635.98 466.88 636.21 459.69 634.28 452.36 629.98 444.91 623.6 437.47 616.06 429.93 607.49 422.33 598.56 414.73 590.43 407.25 583.44 399.89 578.04 392.52 574.83 385.26 573.61 378.11 574.31 370.93 577.08 363.82 581.17 356.8 586.12 349.71 591.88 342.67 597.48 335.68 602.42 328.61 606.75 321.56 609.63 314.53 610.83 307.41 610.61 300.31 608.51 293.24 604.62 286.1 599.32 279.01 592.52 272 584.52 264.98 575.65 258.09 566.08 251.38 556.09 244.75 545.9 238.37 535.71 232.32 525.72 226.46 515.98 221.01 506.65 216.03 497.79 211.36 489.36 207.24 481.41 203.72 473.89 200.56 466.8 198.03 460.03 196.16 453.51 194.62 447.28 193.7 441.17 193.38 435.1 193.27 429.19 193.66 423.21 194.49 417.1 195.32 411.04 196.43 404.79 197.77 398.32 198.87 391.85 200.04 385.13 201.22 378.15 201.97 371.17 202.64 364.11 203.22 357.01 203.35 349.93 203.43 342.85 203.49 335.83 203.22 328.88 203.06 322.05 203.05 315.42 202.99 305.82 204.71 288.63 206.8 281.34 209.77 274.98 219 265.46 225.23 262.23 229.88 260.32 235.02 258.78 240.6 257.51 246.44 256 252.65 254.52 259.19 252.91 265.9 250.71 272.86 248.14 280.01 245.09 287.27 241.18 294.67 236.69 302.17 231.59 309.71 225.73 317.32 219.43 324.97 212.86 332.62 206.02 340.3 199.35 347.98 193.13 355.65 187.4 363.32 182.64 370.98 179.11 378.63 176.69 386.26 175.76 393.86 176.4 401.46 178.17 409.03 181.29 416.53 185.54" stroke-dasharray="9 10" transform="rotate(28.28, 400, 400)" opacity="0.67"></path><path d="M411.01 196.41C418.03 200.93 424.76 205.82 431.19 210.76 437.6 215.21 443.68 219.21 449.43 222.61 457.8 225.82 472.54 227.32 478.86 226.27 489.48 223.15 501.98 224.42 505.36 228.28 507.79 231.81 510.19 236.23 512.66 241.42 515.55 247.19 518.66 253.6 522.08 260.52 526.09 267.8 530.54 275.43 535.47 283.29 541.07 291.3 547.17 299.41 553.74 307.53 560.88 315.67 568.37 323.75 576.06 331.74 583.99 339.68 591.84 347.5 599.41 355.2 606.69 362.84 613.29 370.38 619 377.8 623.87 385.2 627.5 392.51 629.71 399.73 630.74 406.95 630.21 414.09 628.08 421.14 624.81 428.19 620.22 434.98 614.54 441.47 608.23 447.94 601.26 454.09 593.9 459.87 586.57 465.58 579.26 470.87 572.18 475.69 565.66 480.39 559.63 484.57 554.19 488.19 538.87 500.49 532.76 508.56 531.73 511.57 530.5 516.35 525.79 531.36 522.08 541.98 519.26 550.32 515.9 559.37 512.03 568.92 507.98 578.75 503.45 588.49 498.47 597.72 493.36 606.2 487.86 613.43 482.01 619.01 476.08 622.91 469.86 624.68 463.38 624.18 456.87 621.84 450.15 617.42 443.25 611.21 436.34 604.06 429.27 596.03 422.08 587.69 414.88 580.06 407.73 573.38 400.63 568.08 393.54 564.67 386.48 562.99 379.49 563.02 372.47 564.94 365.49 568.13 358.55 572.22 351.57 577.24 344.61 582.34 337.67 587.07 330.69 591.53 323.72 594.91 316.77 596.97 309.78 597.94 302.82 597.3 295.91 595.07 288.98 591.57 282.13 586.6 275.4 580.38 268.7 573.21 262.17 565.15 255.86 556.45 249.67 547.31 243.77 537.9 238.21 528.41 232.88 518.93 227.96 509.61 223.52 500.56 219.38 491.76 215.78 483.3 212.75 475.2 210.06 467.41 207.95 459.94 206.45 452.77 205.25 445.85 204.61 439.13 204.51 432.56 204.58 426.15 205.09 419.8 205.99 413.47 206.87 407.2 208.01 400.89 209.34 394.51 210.43 388.14 211.59 381.66 212.76 375.08 213.52 368.51 214.21 361.98 214.8 355.53 214.98 349.11 215.1 342.79 215.2 336.64 214.89 327.61 214.65 311.01 215.05 303.66 217.86 291.56 227.58 278.51 232.92 275.73 239.17 273.08 254.3 267.8 262.98 264.51 269.07 261.61 275.43 258.29 282.02 254.49 288.74 249.93 295.63 244.85 302.64 239.29 309.73 233.15 316.92 226.73 324.15 220.2 331.42 213.58 338.73 207.26 346.03 201.48 353.35 196.28 360.67 192.05 367.95 189.02 375.24 187.04 382.49 186.45 389.68 187.3 396.87 189.17 403.99 192.27 411 196.4" stroke-dasharray="4 3" transform="rotate(32.32, 400, 400)" opacity="0.49"></path><path d="M404.41 207.28C410.93 211.64 417.17 216.37 423.09 221.18 429.01 225.57 434.6 229.62 439.86 233.16 447.54 236.81 461.09 239.57 466.96 239.13 477.21 236.34 490.29 235.71 494.28 238.15 498.67 242.17 508.59 254.83 514.5 263.16 519.07 269.3 524.03 275.89 529.39 282.8 535.29 289.97 541.59 297.33 548.23 304.82 555.28 312.42 562.54 320.05 569.88 327.66 577.33 335.29 584.61 342.86 591.52 350.32 598.11 357.79 604.02 365.13 609.06 372.34 613.34 379.54 616.47 386.61 618.32 393.53 619.13 400.45 618.55 407.22 616.55 413.81 613.54 420.39 609.35 426.64 604.16 432.52 598.4 438.38 591.99 443.85 585.18 448.91 578.32 453.93 571.4 458.51 564.6 462.62 558.22 466.67 552.2 470.25 546.62 473.35 534.28 481.09 522.99 490.21 520.95 493.29 519.54 497.38 516.49 508.97 514.43 517.05 512.96 523.57 511.08 530.83 508.77 538.79 506.38 547.38 503.53 556.38 500.22 565.57 496.79 574.75 492.92 583.59 488.63 591.72 484.23 598.99 479.44 604.97 474.29 609.34 469.07 612.17 463.53 613.07 457.7 611.97 451.83 609.28 445.71 604.82 439.35 598.83 432.99 592.09 426.42 584.59 419.66 576.82 412.9 569.68 406.12 563.34 399.35 558.15 392.57 554.6 385.79 552.54 379.02 551.97 372.24 553.11 365.46 555.43 358.69 558.67 351.91 562.89 345.13 567.36 338.36 571.71 331.57 576.06 324.8 579.66 318.06 582.28 311.31 584.12 304.61 584.65 297.98 583.81 291.38 581.91 284.88 578.65 278.53 574.18 272.27 568.77 266.19 562.38 260.37 555.2 254.69 547.45 249.33 539.21 244.32 530.68 239.55 521.95 235.2 513.15 231.31 504.42 227.72 495.75 224.63 487.26 222.08 479.03 219.84 470.95 218.13 463.15 216.99 455.62 216.08 448.26 215.69 441.14 215.78 434.23 216 427.45 216.61 420.81 217.57 414.31 218.48 407.86 219.62 401.5 220.93 395.19 222.01 388.9 223.15 382.64 224.29 376.41 225.06 370.19 225.76 364.14 226.38 358.28 226.69 349.63 226.68 333.57 226.6 326.31 226.82 313.68 230.37 298.88 233.14 295.35 236.69 292.06 246.5 286.18 252.69 283.14 257.19 280.65 262.07 277.95 267.3 274.95 272.71 271.33 278.42 267.3 284.37 262.83 290.46 257.73 296.75 252.21 303.19 246.36 309.73 240.09 316.38 233.69 323.1 227.35 329.88 221.05 336.71 215.17 343.55 209.9 350.42 205.25 357.29 201.57 364.12 199.03 370.97 197.47 377.77 197.2 384.5 198.25 391.23 200.19 397.88 203.26 404.4 207.27" stroke-dasharray="7 1" transform="rotate(36.36, 400, 400)" opacity="0.82"></path><path d="M397.37 218.15C403.41 222.35 409.17 226.89 414.65 231.55 420.12 235.87 425.29 239.92 430.16 243.56 439.87 248.46 448.36 251.07 455.68 251.78 463.08 250.14 469.56 248.5 475.39 247.91 481.87 247.95 488.35 250.55 495.26 255.83 503.68 262.9 513.21 272.42 524 283.73 536.47 296.18 549.91 309.61 563.61 323.38 577.31 337.52 589.54 351.55 598.98 365.11 602.69 371.92 605.37 378.59 606.89 385.09 607.51 391.6 606.89 397.92 605.01 404.03 602.26 410.15 598.44 415.89 593.73 421.25 588.49 426.6 582.64 431.56 576.37 436.12 563.7 445.18 551.03 452.62 539.35 458.55 529.82 464.64 521.99 469.71 515.75 474.36 511.64 480.32 508.3 487.16 505.12 495.69 502.79 506.95 499.66 520.6 495.36 536.36 490.97 553.5 485.04 570.46 477.58 585.1 469.83 596.12 460.63 601.33 450.18 599.57 444.9 596.64 439.34 592.2 433.52 586.46 427.69 580.13 421.62 573.16 415.32 565.95 409.02 559.29 402.66 553.29 396.25 548.26 389.85 544.62 383.4 542.25 376.94 541.17 364.01 543.45 350.98 549.28 338.01 556.5 325.06 564.51 312.21 569.77 299.71 571.01 287.44 568.95 275.77 562.25 265.07 551.8 255.06 538.87 246.4 523.92 239.47 508.14 233.6 491.96 229.65 476.06 227.75 460.95 226.66 446.18 227.22 432.22 229.21 419.08 230.14 412.58 231.27 406.23 232.55 400.03 233.6 393.86 234.71 387.81 235.83 381.9 236.95 373.17 238.33 357.09 238.63 349.79 238.14 340.3 237.98 332.11 238.46 325.34 238.75 318.62 240.36 313.19 243.46 308.83 247.18 303.88 252.66 299.23 259.73 294.29 267.62 287.53 276.93 279.56 287.34 270.12 298.31 258.72 310.07 246.48 322.26 234.38 334.73 222.97 347.42 214.12 360.04 209.16 366.39 208.01 372.7 208.03 378.93 209.24 385.17 211.25 391.33 214.26 397.36 218.14" stroke-dasharray="8 10" transform="rotate(40.400000000000006, 400, 400)" opacity="0.95"></path><path d="M390.59 229.02C401.73 237.15 411.89 245.88 421.04 253.81 430.16 259.17 438.32 262.56 445.57 264.14 453.01 263.36 459.84 262.18 466.31 261.52 473.47 260.89 480.84 262.2 488.72 265.72 497.92 270.59 508.06 277.75 519.17 286.75 531.51 296.87 544.41 308.22 557.17 320.21 569.66 332.7 580.55 345.34 588.75 357.72 594.46 370.23 596.18 382.27 593.47 393.55 587.77 404.83 578.71 414.74 567.47 423.28 555.76 431.82 543.75 439.11 532.34 445.35 522.58 451.99 514.14 458.19 507.04 464.51 501.81 472.23 497.39 481.09 493.33 491.6 490.22 504.24 486.67 518.67 482.31 534.31 478.08 550.39 472.63 565.48 465.89 577.78 458.99 586.47 450.77 589.79 441.33 587.01 431.78 579.92 421.12 568.57 409.47 555.09 397.83 543.48 385.81 534.94 373.63 530.6 361.49 531.48 349.21 535.68 336.99 541.56 324.88 548.82 312.93 554.35 301.39 556.91 290.19 557.08 279.66 553.26 270.16 545.9 261.35 536.16 253.88 524.02 248.07 510.52 243.19 496.19 240.06 481.58 238.76 467.29 238.1 453.05 238.89 439.4 240.93 426.56 242.65 413.84 244.89 401.8 247.37 390.58 248.55 379.35 249.54 369.38 250.35 360.69 250.01 351.98 249.93 344.53 250.37 338.3 250.49 331.89 251.73 326.41 254.22 321.58 257.16 315.91 261.63 310.16 267.56 303.85 274.16 295.84 282.12 286.71 291.17 276.43 300.74 264.76 311.15 252.75 322.08 241.38 333.29 231.06 344.8 223.38 356.32 219.42 367.95 218.65 379.45 222.01 390.58 229.01" stroke-dasharray="6 1" transform="rotate(44.44, 400, 400)" opacity="0.36"></path><path d="M384.73 239.89C394.98 247.64 404.45 256.05 413.12 263.91 421.81 269.64 429.78 273.7 437.12 276.13 444.69 276.28 451.93 275.79 459.04 275.38 466.82 274.53 474.91 275.04 483.52 277.25 493.2 280.34 503.64 285.44 514.75 292.28 526.68 300.08 538.82 309.25 550.53 319.29 561.75 329.83 571.33 340.8 578.37 351.79 583.21 362.92 584.52 373.82 581.94 384.2 576.8 394.58 568.65 403.9 558.48 412.19 547.74 420.55 536.49 428.1 525.52 435.07 515.76 442.57 506.96 450.09 499.23 458.08 493.1 467.36 487.72 477.8 482.8 489.64 478.86 502.95 474.73 517.39 470.1 532.24 465.75 546.77 460.49 559.75 454.19 569.68 447.86 576.21 440.38 577.89 431.79 574.31 423.13 567.24 413.4 556.62 402.7 544.22 392 533.42 380.9 525.1 369.61 520.25 358.37 519.9 347.01 522.56 335.74 527.02 324.63 533.24 313.74 538.55 303.35 541.81 293.33 543.56 284.03 542.04 275.78 537.39 268.19 530.68 261.9 521.47 257.14 510.56 253.17 498.61 250.78 485.89 250.01 473.05 249.7 460.01 250.66 447.26 252.7 435.12 254.38 423.02 256.53 411.56 258.9 400.91 260.1 390.27 261.15 380.87 262.06 372.69 261.88 364.42 261.92 357.23 262.36 351 262.41 344.43 263.38 338.45 265.4 332.75 267.68 326.14 271.3 319.19 276.21 311.59 281.63 302.56 288.33 292.6 296.07 281.87 304.26 270.31 313.31 258.87 322.95 248.44 332.84 239.31 343.12 232.82 353.52 229.81 364.01 229.64 374.49 233.14 384.73 239.89" stroke-dasharray="4 2" transform="rotate(48.48, 400, 400)" opacity="0.49"></path><path d="M380.37 250.76C389.78 258.1 398.64 266.14 406.93 273.86 415.27 279.84 423.14 284.47 430.62 287.68 438.35 288.79 445.97 289.12 453.61 289.23 461.84 288.57 470.44 288.75 479.48 290.15 489.35 291.98 499.77 295.45 510.57 300.47 521.87 306.21 533.08 313.31 543.64 321.43 553.58 329.99 561.89 339.2 567.86 348.72 571.89 358.37 572.84 368.09 570.4 377.63 565.79 387.17 558.52 396.06 549.38 404.33 539.64 412.71 529.23 420.72 518.83 428.58 509.28 436.95 500.36 445.68 492.26 455.05 485.44 465.43 479.3 476.84 473.63 489.26 468.87 502.52 464.11 516.27 459.1 529.76 454.45 542.41 449.17 553.14 443.1 560.79 437.09 565.35 430.14 565.65 422.24 561.47 414.31 554.55 405.43 544.7 395.66 533.35 385.89 523.36 375.76 515.34 365.45 510.13 355.22 508.72 344.9 509.96 334.73 512.99 324.74 517.96 315.04 522.65 305.88 526.05 297.1 528.71 289.08 528.85 282.09 526.38 275.69 522.29 270.5 515.83 266.72 507.53 263.58 498.18 261.83 487.72 261.49 476.74 261.47 465.4 262.54 454.01 264.53 442.92 266.15 431.8 268.18 421.13 270.44 411.09 271.64 401.05 272.75 392.08 273.74 384.11 273.74 376.03 273.92 368.77 274.43 362.17 274.48 355.16 275.27 348.43 276.95 341.72 278.72 334.14 281.63 326.12 285.67 317.49 290.07 307.77 295.62 297.39 302.15 286.64 309.05 275.55 316.8 264.96 325.17 255.66 333.77 247.78 342.83 242.46 352.11 240.34 361.48 240.7 370.96 244.3 380.37 250.76" stroke-dasharray="10 7" transform="rotate(52.52, 400, 400)" opacity="0.99"></path><path d="M377.93 261.62C386.56 268.54 394.88 276.17 402.84 283.65 410.86 289.77 418.64 294.84 426.24 298.74 434.07 300.76 441.94 301.98 449.93 302.79 458.41 302.63 467.22 302.91 476.39 303.97 486.14 305.08 496.24 307.45 506.48 311.12 516.93 315.21 527.08 320.57 536.44 327 545.11 333.75 552.22 341.31 557.2 349.43 560.52 357.65 561.15 366.24 558.86 375.01 554.76 383.78 548.32 392.32 540.18 400.64 531.43 409.09 521.92 417.54 512.21 426.15 503.06 435.2 494.26 444.77 486.03 454.97 478.79 465.87 472.09 477.54 465.84 489.78 460.39 502.31 455.04 514.8 449.62 526.51 444.59 537.07 439.15 545.55 433.18 551.08 427.31 553.92 420.72 553.09 413.39 548.54 406.05 541.87 397.93 532.81 389.05 522.48 380.18 513.31 371.02 505.64 361.76 500.21 352.58 497.94 343.38 497.92 334.39 499.57 325.59 503.19 317.13 506.96 309.26 510.05 298.35 513.56 281.82 509.11 276.82 501.12 274.4 494.28 273.19 486.14 273.19 477.19 273.38 467.82 274.5 458.07 276.41 448.28 277.94 438.41 279.84 428.69 281.98 419.31 283.17 409.93 284.32 401.31 285.4 393.4 285.58 385.38 285.92 377.87 286.51 370.73 286.63 363.2 287.36 355.71 288.8 348.07 290.2 339.72 292.57 330.92 295.89 321.65 299.44 311.66 304.01 301.32 309.48 290.96 315.21 280.67 321.77 271.16 328.97 263.12 336.35 256.52 344.24 252.33 352.47 251.03 360.76 251.85 369.3 255.48 377.93 261.62" stroke-dasharray="4 2" transform="rotate(56.56, 400, 400)" opacity="0.65"></path><path d="M377.65 272.49C385.56 278.95 393.35 286.12 400.99 293.3 408.68 299.43 416.32 304.81 423.93 309.25 431.74 312.1 439.69 314.19 447.79 315.8 456.25 316.36 465 317.06 473.99 318.21 483.34 319.11 492.86 320.91 502.3 323.71 511.76 326.69 520.78 330.77 528.91 335.85 536.35 341.13 542.34 347.3 546.41 354.2 549.08 361.16 549.45 368.72 547.33 376.79 543.7 384.85 538.05 393.05 530.87 401.34 523.1 409.75 514.52 418.44 505.61 427.46 497.02 436.8 488.54 446.67 480.42 457.07 473.03 467.83 466.02 479.06 459.39 490.44 453.43 501.69 447.61 512.49 441.83 522.18 436.44 530.59 430.81 536.94 424.85 540.57 419.03 541.95 412.71 540.26 405.84 535.51 398.99 529.19 391.53 520.93 383.51 511.61 375.48 503.25 367.3 496.01 359.11 490.49 350.98 487.54 342.93 486.44 335.15 486.83 327.54 489.08 320.33 491.74 313.71 494.16 304.61 497.63 291.25 496.57 287.45 491.4 285.63 486.73 284.85 480.72 285.1 473.72 285.43 466.34 286.54 458.31 288.34 449.92 289.75 441.43 291.52 432.78 293.51 424.12 294.69 415.47 295.87 407.21 297.02 399.35 297.38 391.38 297.88 383.63 298.6 376.01 298.84 368.07 299.56 360.01 300.87 351.72 302.05 342.94 304.02 333.79 306.8 324.35 309.68 314.55 313.44 304.68 318.01 295.1 322.75 285.88 328.26 277.63 334.42 270.91 340.69 265.58 347.53 262.45 354.79 261.88 362.09 263.07 369.74 266.7 377.65 272.49" stroke-dasharray="6 5" transform="rotate(60.599999999999994, 400, 400)" opacity="0.98"></path><path d="M379.56 283.36C386.78 289.34 394.05 296.01 401.32 302.81 408.64 308.84 416.04 314.36 423.51 319.19 431.13 322.72 438.93 325.61 446.87 328.01 455.07 329.4 463.47 330.74 471.99 332.28 480.69 333.38 489.41 335.08 497.89 337.51 506.26 339.89 514.09 343.17 521.01 347.35 527.28 351.59 532.23 356.71 535.49 362.63 537.6 368.58 537.75 375.27 535.79 382.67 532.61 390.06 527.7 397.84 521.43 405.92 514.63 414.08 507.01 422.67 498.96 431.64 491.06 440.78 483.1 450.39 475.3 460.32 468.01 470.34 460.95 480.51 454.19 490.5 447.93 500.09 441.83 508.94 435.83 516.53 430.15 522.87 424.38 527.26 418.44 529.27 412.65 529.49 406.54 527.18 400.08 522.42 393.65 516.53 386.81 509.08 379.58 500.74 372.36 493.18 365.11 486.42 357.96 480.95 350.86 477.51 343.93 475.54 337.33 474.82 327.85 476.51 311.94 481.56 306.01 482.6 301.38 482.07 297 473.72 297.18 466.28 297.58 460.67 298.65 454.25 300.3 447.23 301.59 440.12 303.2 432.56 305.05 424.68 306.2 416.81 307.39 408.99 308.6 401.28 309.12 393.49 309.78 385.68 310.63 377.81 311.02 369.73 311.81 361.44 313.07 352.94 314.14 344.15 315.85 335.13 318.24 326.02 320.62 316.84 323.76 307.83 327.61 299.34 331.55 291.39 336.19 284.5 341.45 279.11 346.78 274.99 352.69 272.83 359.08 272.88 365.49 274.38 372.34 277.94 379.56 283.36" stroke-dasharray="8 9" transform="rotate(64.64, 400, 400)" opacity="0.74"></path><path d="M383.47 294.23C390.04 299.71 396.76 305.84 403.58 312.18 410.45 317.98 417.47 323.5 424.6 328.55 431.85 332.58 439.27 336.12 446.81 339.22 454.49 341.44 462.29 343.51 470.09 345.61 477.95 347.2 485.7 349.15 493.12 351.58 500.33 353.84 506.97 356.77 512.73 360.43 519.9 366.27 526.04 381.86 524.25 391.59 521.5 398.34 517.28 405.57 511.89 413.19 506.01 420.85 499.35 428.95 492.22 437.38 485.11 445.86 477.81 454.64 470.53 463.54 463.57 472.34 456.72 481.03 450.06 489.28 443.76 497 437.59 503.84 431.53 509.39 425.74 513.84 419.94 516.56 414.09 517.26 408.36 516.59 402.48 513.9 396.42 509.28 390.39 503.89 384.13 497.26 377.66 489.87 371.19 483.11 364.82 476.89 358.66 471.58 349.58 466.52 333.25 463.52 326.39 464.23 312.67 463.52 310.33 448.64 312.3 440.31 313.45 434.44 314.89 427.94 316.59 420.89 317.69 413.84 318.88 406.59 320.13 399.22 320.79 391.81 321.6 384.21 322.59 376.46 323.15 368.59 324.04 360.5 325.31 352.27 326.37 343.94 327.94 335.52 330.06 327.18 332.12 318.99 334.8 311.14 338.1 303.96 343.38 294.64 356.99 284.14 365.17 284.06 370.79 285.78 376.91 289.22 383.47 294.23" stroke-dasharray="4 2" transform="rotate(68.68, 400, 400)" opacity="0.62"></path><path d="M389 305.1C400.83 315.11 413.59 326.57 426.75 337.32 440.18 345.16 454.22 351.76 468.01 357.67 481.69 361.64 494.26 366.75 504.04 373.79 511.82 380.46 515.12 389.81 512.71 402 507.35 414.19 497.56 428.23 485.34 443.17 472.87 457.98 459.65 472.99 446.78 486.22 434.87 497.3 423.15 504.09 411.75 504.58 400.77 501.21 389.43 492.06 377.92 479 366.41 467.88 355.78 458.89 346.65 453.11 334.28 451.79 321.53 449.64 321.78 442.03 322.4 435.48 324.63 425.8 328.13 413.41 329.7 401.01 331.82 387.22 334.42 372.76 335.54 358.21 338.01 343.01 342.06 328.42 345.7 314.87 351.5 303.69 359.38 297 367.22 293.87 377.17 296.57 389 305.1" stroke-dasharray="5 1" transform="rotate(72.72, 400, 400)" opacity="0.67"></path><path d="M395.61 315.97C406.13 324.88 417.58 335.3 429.4 345.52 441.34 353.76 453.65 361.22 465.46 368.05 476.96 373.24 487.24 379.04 494.93 386.05 501.02 392.63 503.41 401.23 501.18 412.06 496.73 422.88 488.58 435.01 478.25 447.51 467.52 459.68 455.81 471.37 444.12 480.94 432.98 488.65 421.91 492.52 411.24 491.34 400.87 487.56 390.47 479.38 380.34 468.13 370.21 458.35 361.23 449.79 353.8 443.41 343.74 439.5 333.85 434.29 334.24 427.63 334.72 422.31 336.59 414.25 339.66 403.57 341.2 392.88 343.39 380.7 346.08 367.89 347.56 355.23 350.15 342.29 354.03 330.34 357.43 319.58 362.6 311.21 369.53 306.81 376.36 305.16 385.09 308.21 395.61 315.97" stroke-dasharray="8 10" transform="rotate(76.76, 400, 400)" opacity="0.42"></path><path d="M402.65 326.84C411.82 334.61 421.78 343.82 431.97 353.19 442.18 361.34 452.52 369.14 462.2 376.46 471.51 382.57 479.59 388.97 485.42 396 490.02 402.64 491.66 410.59 489.64 419.98 486.03 429.37 479.42 439.35 470.93 449.12 462 458.54 452 466.99 441.8 473.28 431.85 478.16 421.84 479.84 412.21 477.64 402.76 473.83 393.47 466.74 384.69 457.27 375.91 448.85 368.4 440.97 362.38 434.44 354.21 428.68 346.41 420.19 346.74 413.71 347.06 408.97 348.57 402.11 351.2 393.09 352.67 384.07 354.84 373.84 357.55 363.22 359.3 352.85 362.01 342.56 365.74 333.47 369.03 325.48 373.73 319.7 379.86 317.22 385.86 316.73 393.47 319.94 402.65 326.84" stroke-dasharray="8 10" transform="rotate(80.80000000000001, 400, 400)" opacity="0.70"></path><path d="M409.42 337.71C417.19 344.28 425.5 352.15 433.88 360.39 442.23 367.97 450.49 375.53 458.03 382.8 465.23 389.3 471.3 395.92 475.49 402.75 478.83 409.29 479.86 416.51 478.1 424.39 475.26 432.26 470.08 440.04 463.34 447.16 456.21 454 448.04 459.62 439.54 463.27 431.1 466 422.49 466.21 414.18 463.57 405.97 460.06 397.96 454.15 390.54 446.4 383.12 439.37 376.92 432.41 372.07 426.15 365.45 419.37 359.11 408.27 359.25 401.69 359.39 397.18 360.55 391.24 362.74 383.83 364.08 376.42 366.16 368.29 368.78 360.1 370.7 352.17 373.44 344.61 377 338.28 382.32 331.02 398.39 330.18 409.42 337.71" stroke-dasharray="7 11" transform="rotate(84.84, 400, 400)" opacity="0.20"></path><path d="M415.28 348.58C427.87 359.34 441.56 373.56 452.81 387.15 463.03 399.15 468.77 411.89 466.57 424.49 461.67 437.08 450.35 447.06 437.06 451.16 423.65 453.29 409.39 447.82 397.32 435.53 385.24 425.05 377.29 414.27 374.01 404.97 370.27 398.12 370.31 389.17 374.27 377.43 376.06 365.68 380.79 353.49 387.58 345.08 393.32 338.87 402.68 339.39 415.28 348.58" stroke-dasharray="9 3" transform="rotate(88.88, 400, 400)" opacity="0.88"></path><path d="M419.63 359.44C429.17 367.64 438.9 378.76 446.44 389.76 453.33 400.16 456.91 410.88 455.03 420.27 451.67 429.66 443.71 435.82 434.11 437.38 424.29 438.11 413.56 433.7 404.35 424.66 395.14 416.62 389.01 407.46 386.3 399.02 383.21 391.89 382.94 383.77 385.81 375 387.41 366.23 391.57 358.46 397.33 354 402.46 350.69 410.09 352.17 419.63 359.44" stroke-dasharray="4 2" transform="rotate(92.92, 400, 400)" opacity="0.80"></path><path d="M422.07 370.31C434.86 381.46 445.59 400.09 443.49 412.48 438.83 424.86 423.43 425.7 410.96 413.79 398.49 403.63 393.15 388.71 397.35 376.98 399.23 365.24 409.26 360.8 422.07 370.31" stroke-dasharray="3 5" transform="rotate(96.96, 400, 400)" opacity="0.73"></path></g></svg>