<?xml version="1.0" encoding="UTF-8" standalone="no"?>
<!-- Created with Inkscape (http://www.inkscape.org/) -->

<svg
   width="200mm"
   height="200mm"
   viewBox="0 0 200 200"
   version="1.1"
   id="svg5"
   xml:space="preserve"
   inkscape:version="1.2.2 (1:1.2.2+202305151914+b0a8486541)"
   sodipodi:docname="logo.svg"
   xmlns:inkscape="http://www.inkscape.org/namespaces/inkscape"
   xmlns:sodipodi="http://sodipodi.sourceforge.net/DTD/sodipodi-0.dtd"
   xmlns="http://www.w3.org/2000/svg"
   xmlns:svg="http://www.w3.org/2000/svg"><sodipodi:namedview
     id="namedview7"
     pagecolor="#505050"
     bordercolor="#eeeeee"
     borderopacity="1"
     inkscape:showpageshadow="0"
     inkscape:pageopacity="0"
     inkscape:pagecheckerboard="0"
     inkscape:deskcolor="#505050"
     inkscape:document-units="mm"
     showgrid="false"
     inkscape:zoom="11.313708"
     inkscape:cx="342.06291"
     inkscape:cy="394.4772"
     inkscape:window-width="1920"
     inkscape:window-height="1055"
     inkscape:window-x="1920"
     inkscape:window-y="25"
     inkscape:window-maximized="1"
     inkscape:current-layer="layer1" /><defs
     id="defs2"><inkscape:path-effect
       effect="fillet_chamfer"
       id="path-effect3480"
       is_visible="true"
       lpeversion="1"
       nodesatellites_param="F,0,0,1,0,2.9104167,0,1 @ F,0,0,1,0,2.9104167,0,1 @ F,0,0,1,0,2.9104167,0,1 @ F,0,0,1,0,2.9104167,0,1 @ F,0,0,1,0,2.9104167,0,1 @ F,0,0,1,0,2.9104167,0,1 @ F,0,0,1,0,2.9104167,0,1 @ F,0,0,1,0,2.9104167,0,1 @ F,0,0,1,0,2.9104167,0,1 @ F,0,0,1,0,2.9104167,0,1 @ F,0,0,1,0,2.9104167,0,1 @ F,0,0,1,0,2.9104167,0,1 @ F,0,0,1,0,1.1581002,0,1 @ F,0,0,1,0,2.9104167,0,1 @ F,0,0,1,0,2.9104167,0,1 @ F,0,0,1,0,2.9104167,0,1 @ F,0,0,1,0,2.9104167,0,1 @ F,0,0,1,0,2.9104167,0,1 @ F,0,0,1,0,2.9104167,0,1 @ F,0,0,1,0,2.9104167,0,1 @ F,0,0,1,0,2.9104167,0,1 @ F,0,0,1,0,2.9104167,0,1 | F,0,0,1,0,2.9104167,0,1 @ F,0,0,1,0,2.9104167,0,1 @ F,0,0,1,0,2.9104167,0,1 @ F,0,0,1,0,2.9104167,0,1 @ F,0,0,1,0,2.9104167,0,1 @ F,0,0,1,0,2.9104167,0,1 @ F,0,0,1,0,2.9104167,0,1 | F,0,0,1,0,2.9104167,0,1 @ F,0,0,1,0,2.9104167,0,1 @ F,0,0,1,0,2.9104167,0,1 @ F,0,0,1,0,2.9104167,0,1 @ F,0,0,1,0,2.9104167,0,1 @ F,0,0,1,0,2.9104167,0,1"
       unit="px"
       method="auto"
       mode="F"
       radius="11"
       chamfer_steps="1"
       flexible="false"
       use_knot_distance="true"
       apply_no_radius="true"
       apply_with_radius="true"
       only_selected="false"
       hide_knots="false" /><inkscape:path-effect
       effect="simplify"
       id="path-effect3478"
       is_visible="true"
       lpeversion="1"
       steps="38"
       threshold="0.002"
       smooth_angles="10"
       helper_size="5"
       simplify_individual_paths="false"
       simplify_just_coalesce="false" /><rect
       x="-112.22316"
       y="612.25702"
       width="371.15545"
       height="402.9497"
       id="rect719" /><rect
       x="132.53522"
       y="215.53853"
       width="284.0584"
       height="339.7529"
       id="rect658" /><inkscape:path-effect
       effect="fill_between_many"
       method="originald"
       linkedpaths="#path597,0,1"
       id="path-effect599" /></defs><g
     inkscape:label="Layer 1"
     inkscape:groupmode="layer"
     id="layer1"><path
       id="path725"
       style="fill:#34d399;fill-opacity:1"
       d="m 96.871204,0.35947797 c -0.540763,0.16965219 -1.069667,0.38854114 -1.57984,0.65667693 -1.417435,0.7449719 -3.358057,2.5259828 -4.612253,3.5312892 -2.476332,1.9849156 -6.486654,5.2535089 -9.536029,8.0005989 -1.193816,1.075473 -3.049638,2.906091 -4.145975,4.081403 -3.509652,3.762475 -7.851586,8.972537 -10.264217,11.913215 -1.019201,1.242271 -1.756524,2.256564 -1.657774,2.256564 V 165.9765 c 0,1.60738 0.798732,3.94002 1.79707,5.19979 2.245875,2.83401 6.190162,7.72133 9.444273,11.2821 1.08414,1.1863 2.934238,3.02346 4.130258,4.09709 3.242145,2.91035 7.587625,6.37731 10.211319,8.43166 1.265475,0.99086 3.215898,2.75906 4.633294,3.50412 2.77877,1.46066 6.11326,1.46067 8.89203,0 1.41739,-0.74506 3.30535,-2.58892 4.49921,-3.66521 2.18075,-1.96597 5.60056,-5.0736 8.31001,-7.64767 1.16475,-1.10656 3.01334,-2.94297 4.13014,-4.09897 3.28769,-3.40309 7.43094,-7.91518 9.82565,-10.54272 1.08214,-1.18735 1.32538,-3.29449 0.53872,-4.69621 -11.3091,-20.15149 -24.6003,-40.40539 -36.942536,-60.26422 -0.848267,-1.36488 -1.96364,-3.70292 -2.494665,-5.22004 l 0,0 a 0.49682073,0.49682073 3.928098 0 0 -0.911015,-0.0626 l -0.0634,0.12364 a 32.49315,32.49315 122.26559 0 1 -3.09503,4.90237 l -10.769901,14.09465 c -0.975925,1.2772 -2.221198,1.08617 -2.590366,-0.47737 -0.436481,-1.84864 -0.700165,-3.82068 -0.791064,-5.91617 -0.06965,-1.60551 0.031,-4.21332 0.200023,-5.81153 0.261745,-2.4749 0.718807,-4.96012 1.37124,-7.45558 0.406533,-1.55492 1.213803,-4.035718 1.818296,-5.524803 0.994264,-2.449229 2.189985,-4.771197 3.587189,-6.965937 0.863038,-1.355667 2.416884,-3.450089 3.36849,-4.745509 L 121.91232,33.14479 a 140.54423,140.54423 127.48706 0 1 3.5417,-4.617788 l 0.19655,-0.245564 c 1.00442,-1.254914 1.05617,-3.328936 0.1017,-4.62226 -1.69424,-2.295725 -4.35637,-5.840681 -6.65077,-8.622453 -1.02241,-1.239579 -2.77728,-3.16753 -3.91897,-4.298753 -2.10291,-2.083648 -4.69311,-4.4516526 -6.49127,-6.0673996 -1.19535,-1.0740891 -3.09053,-2.9094287 -4.50799,-3.6543568 -0.51032,-0.26819125 -1.03938,-0.48711808 -1.5803,-0.65679048 -1.5278,-0.47923167 -4.203989,-0.47925295 -5.731766,5.285e-5 z M 139.74756,40.050447 105.34655,84.748797 a 4.2817256,4.2817256 93.37769 0 0 -0.28363,4.805644 l 39.12203,65.556429 c 0.8237,1.38028 2.44084,1.6067 3.61015,0.50381 4.76816,-4.49732 16.51921,-15.61864 24.12957,-23.14248 1.14262,-1.12962 2.98144,-2.97567 4.10588,-4.12428 6.11911,-6.25064 14.85648,-15.5467 18.73591,-19.68948 1.09832,-1.17288 3.01638,-3.04232 3.58003,-4.53463 0.97512,-2.58172 0.0713,-5.479074 -1.76103,-8.044308 -0.93322,-1.30651 -2.73978,-3.19671 -3.79638,-4.408015 -4.01205,-4.599488 -13.48364,-15.408949 -20.05096,-22.512642 -1.09053,-1.179594 -2.87875,-3.074414 -3.9928,-4.233099 -7.87821,-8.193903 -20.25904,-20.367078 -25.14266,-25.148772 -1.14776,-1.123799 -2.87475,-1.000331 -3.8551,0.273473 z M 44.339431,145.24133 V 54.266527 c 0,-1.607379 -0.943185,-2.011355 -2.105026,-0.900593 -4.007683,3.831485 -12.870285,12.329173 -18.891004,18.285618 -1.142444,1.130248 -2.982057,2.975863 -4.107805,4.123184 -4.75589,4.847022 -11.2694282,11.6782 -14.5116446,15.08932 -1.1071966,1.164875 -2.9076465,3.084818 -3.6215229,4.520031 -1.40575248,2.826195 -1.49951032,6.073373 -0.094219,8.810383 0.731207,1.42413 2.5965278,3.296 3.689917,4.4742 2.9242836,3.15113 8.5080178,9.14022 12.7023558,13.47124 1.11789,1.15432 2.952412,3.00487 4.094677,4.13575 6.558639,6.49325 16.432303,15.83616 20.725461,19.88256 1.169222,1.10202 2.118811,0.69049 2.118811,-0.91689 z"
       sodipodi:nodetypes="ssacccacsaccccccccccacscccccacsacccccccassac"
       inkscape:path-effect="#path-effect3480"
       inkscape:original-d="m 99.737082,-0.07899374 c -2.450703,0 -4.901058,0.9385099 -6.778914,2.81636554 0,0 -9.606838,7.5224692 -13.938407,11.7996502 -5.108777,5.04463 -14.123446,16.262203 -14.123446,16.262203 h 0.178801 V 168.88692 c 0,0 8.39479,10.85582 13.248553,15.67822 4.50605,4.47693 14.634499,12.20484 14.634499,12.20484 3.755712,3.7557 9.802632,3.75571 13.558342,0 0,0 8.5204,-7.59411 12.56589,-11.61516 4.78256,-4.75367 13.82113,-14.77186 13.82113,-14.77186 -12.06835,-21.82609 -26.60888,-43.79699 -39.892135,-65.27974 l -1.344104,-3.84008 -1.919779,3.74396 -14.304037,18.71979 c -1.215999,-3.392 -1.759941,-7.26383 -1.631942,-11.61583 0.192,-4.352 0.991855,-8.73617 2.399854,-13.152171 1.471998,-4.415996 3.551932,-8.447906 6.239929,-12.095903 l 41.184044,-56.063761 3.83387,-4.79001 c 0,0 -6.5182,-9.059191 -10.26398,-13.179041 C 113.90875,9.2044706 106.51651,2.7373718 106.51651,2.7373718 104.63866,0.85951656 102.18778,-0.07899384 99.737082,-0.07899374 Z M 141.52264,37.744021 c -94.957851,-23.672629 -47.478925,-11.836315 0,0 z m 0,0 -37.95117,49.311202 42.10493,70.554867 c 0,0 19.07573,-17.92085 28.30999,-27.19048 7.76293,-7.79268 22.76699,-23.8865 22.76699,-23.8865 3.75571,-3.75572 1.70239,-8.910761 -2.05332,-12.666472 0,0 -15.71783,-18.115813 -23.94654,-26.834329 C 161.28616,57.001413 141.52264,37.744021 141.52264,37.744021 Z M 44.339431,148.15175 c -30.169046,-97.277783 -15.084523,-48.638893 0,0 z m 0,0 V 51.35611 c 0,0 -15.50136,14.767872 -23.058198,22.348396 -6.296352,6.316087 -18.5604506,19.270252 -18.5604506,19.270252 -3.49741128,3.997364 -3.7557104,9.802642 0,13.558352 0,0 11.0028716,11.92665 16.7146776,17.68631 8.106961,8.17488 24.903971,23.93233 24.903971,23.93233 z" /><g
       id="g503" /></g></svg>
